<svg width="22" height="22" viewBox="0 0 22 22" fill="none" xmlns="http://www.w3.org/2000/svg">
<path d="M9.82144 11C9.82144 11.3126 9.94561 11.6123 10.1666 11.8334C10.3877 12.0544 10.6874 12.1786 11 12.1786C11.3126 12.1786 11.6123 12.0544 11.8334 11.8334C12.0544 11.6123 12.1786 11.3126 12.1786 11C12.1786 10.6874 12.0544 10.3876 11.8334 10.1666C11.6123 9.9456 11.3126 9.82143 11 9.82143C10.6874 9.82143 10.3877 9.9456 10.1666 10.1666C9.94561 10.3876 9.82144 10.6874 9.82144 11ZM14.7321 11C14.7321 11.3126 14.8563 11.6123 15.0773 11.8334C15.2983 12.0544 15.5981 12.1786 15.9107 12.1786C16.2232 12.1786 16.523 12.0544 16.744 11.8334C16.965 11.6123 17.0892 11.3126 17.0892 11C17.0892 10.6874 16.965 10.3876 16.744 10.1666C16.523 9.9456 16.2232 9.82143 15.9107 9.82143C15.5981 9.82143 15.2983 9.9456 15.0773 10.1666C14.8563 10.3876 14.7321 10.6874 14.7321 11ZM4.91079 11C4.91079 11.3126 5.03496 11.6123 5.25598 11.8334C5.47701 12.0544 5.77678 12.1786 6.08935 12.1786C6.40192 12.1786 6.70169 12.0544 6.92271 11.8334C7.14374 11.6123 7.26791 11.3126 7.26791 11C7.26791 10.6874 7.14374 10.3876 6.92271 10.1666C6.70169 9.9456 6.40192 9.82143 6.08935 9.82143C5.77678 9.82143 5.47701 9.9456 5.25598 10.1666C5.03496 10.3876 4.91079 10.6874 4.91079 11ZM21.1454 6.7375C20.5905 5.41897 19.795 4.23549 18.7809 3.21897C17.774 2.20836 16.5786 1.40504 15.2624 0.854464C13.912 0.287277 12.4781 0 11 0H10.9509C9.46297 0.00736607 8.02169 0.302009 6.66635 0.881473C5.3615 1.43769 4.17732 2.24245 3.17979 3.25089C2.17556 4.26496 1.3874 5.44353 0.842316 6.75714C0.277591 8.11741 -0.00722668 9.56361 0.000139297 11.0516C0.00847084 12.7567 0.411877 14.4368 1.1787 15.9598V19.692C1.1787 19.9915 1.29769 20.2788 1.5095 20.4906C1.72132 20.7024 2.0086 20.8214 2.30815 20.8214H6.0427C7.56572 21.5883 9.24574 21.9917 10.9509 22H11.0025C12.4732 22 13.8997 21.7152 15.2428 21.1578C16.5523 20.6138 17.7432 19.8199 18.749 18.8203C19.7631 17.8161 20.561 16.6424 21.1184 15.3337C21.6979 13.9783 21.9925 12.5371 21.9999 11.0491C22.0072 9.55379 21.7175 8.10268 21.1454 6.7375ZM17.4354 17.492C15.7142 19.196 13.4308 20.1339 11 20.1339H10.9583C9.4777 20.1266 8.00696 19.7583 6.70809 19.0658L6.50184 18.9554H3.04474V15.4982L2.93425 15.292C2.24185 13.9931 1.87355 12.5223 1.86619 11.0417C1.85637 8.59375 2.79185 6.29554 4.50812 4.56451C6.22194 2.83348 8.51276 1.87589 10.9607 1.86607H11.0025C12.2301 1.86607 13.421 2.10424 14.543 2.57567C15.6381 3.03482 16.6202 3.69531 17.4649 4.53996C18.3071 5.38214 18.97 6.36674 19.4291 7.46183C19.9055 8.5962 20.1436 9.79933 20.1387 11.0417C20.124 13.4873 19.164 15.7781 17.4354 17.492Z" fill="#303A1E"/>
</svg>
