<svg width="13" height="15" viewBox="0 0 13 15" fill="none" xmlns="http://www.w3.org/2000/svg">
<path d="M2.88889 0C2.12271 0 1.38791 0.316071 0.846136 0.87868C0.304364 1.44129 0 2.20435 0 3V12C0 12.7956 0.304364 13.5587 0.846136 14.1213C1.38791 14.6839 2.12271 15 2.88889 15H13V0H2.88889ZM5.77778 2.25H10.8333V3.75H5.77778V2.25ZM1.44444 12C1.44444 11.6022 1.59663 11.2206 1.86751 10.9393C2.1384 10.658 2.5058 10.5 2.88889 10.5H11.5556V13.5H2.88889C2.5058 13.5 2.1384 13.342 1.86751 13.0607C1.59663 12.7794 1.44444 12.3978 1.44444 12Z" fill="#303A1E"/>
</svg>
