<svg width="18" height="17" viewBox="0 0 18 17" fill="none" xmlns="http://www.w3.org/2000/svg">
<path d="M13.0498 0.75C15.3882 0.75 17.25 2.62754 17.25 5.0957C17.2499 6.60228 16.5966 8.02894 15.3037 9.65723C14.0018 11.2969 12.1249 13.0519 9.79297 15.2285L9.79199 15.2295L9 15.9717L8.20801 15.2295L8.20703 15.2285L6.54492 13.6709C4.97242 12.182 3.67277 10.887 2.69629 9.65723C1.40338 8.02894 0.750097 6.60228 0.75 5.0957C0.75 2.62754 2.61184 0.75 4.9502 0.75C6.28117 0.750063 7.57723 1.3919 8.42383 2.40723L9 3.09766L9.57617 2.40723C10.4228 1.3919 11.7188 0.750063 13.0498 0.75Z" fill="url(#paint0_linear_46_146)" stroke="#303A1E" stroke-width="1.5"/>
<defs>
<linearGradient id="paint0_linear_46_146" x1="9" y1="-5.0664e-07" x2="9" y2="17" gradientUnits="userSpaceOnUse">
<stop stop-color="#F3F4F1"/>
<stop offset="0.989025" stop-color="#B5FF22"/>
</linearGradient>
</defs>
</svg>
